<?xml version="1.0" encoding="utf-8"?>
<!-- Generator: Adobe Illustrator 25.4.1, SVG Export Plug-In . SVG Version: 6.00 Build 0)  -->
<svg version="1.1" id="Capa_1" xmlns="http://www.w3.org/2000/svg" xmlns:xlink="http://www.w3.org/1999/xlink" x="0px" y="0px"
	 viewBox="0 0 50 50" style="enable-background:new 0 0 50 50;" xml:space="preserve">
<style type="text/css">
	.st0{opacity:5.000000e-02;fill:#FFFFFF;}
	.st1{opacity:0.45;fill:#FFFFFF;}
	.st2{opacity:0.25;fill:#FFFFFF;}
	.st3{opacity:0.7;fill:#FFFFFF;}
	.st4{opacity:0.15;fill:#FFFFFF;}
	.st5{opacity:0.55;fill:#FFFFFF;}
	.st6{opacity:0.35;fill:#FFFFFF;}
	.st7{opacity:0.9;fill:#FFFFFF;}
</style>
<g>
	<polygon class="st0" points="33.2,0.2 32.3,2.5 33.1,4.7 30.9,5.6 30,7.9 35.5,5.7 	"/>
	<polygon class="st1" points="16.8,49.8 17.7,47.5 16.9,45.3 19.1,44.4 20,42.1 14.5,44.3 	"/>
	<polygon class="st2" points="49.8,33.2 47.5,32.3 45.3,33.1 44.4,30.9 42.1,30 44.3,35.5 	"/>
	<polygon class="st3" points="0.2,16.8 2.5,17.7 4.7,16.9 5.6,19.1 7.9,20 5.7,14.5 	"/>
	<polygon class="st4" points="48.4,13.3 46.1,14.2 45.1,16.4 42.9,15.5 40.6,16.4 46.1,18.7 	"/>
	<polygon class="st5" points="1.6,36.7 3.9,35.8 4.9,33.6 7.1,34.5 9.4,33.6 3.9,31.3 	"/>
	<polygon class="st6" points="36.7,48.4 35.8,46.1 33.6,45.1 34.5,42.9 33.6,40.6 31.3,46.1 	"/>
	<polygon class="st7" points="13.3,1.6 14.2,3.9 16.4,4.9 15.5,7.1 16.4,9.4 18.7,3.9 	"/>
</g>
</svg>
