<?xml version="1.0" encoding="utf-8"?>
<!-- Generator: Adobe Illustrator 25.4.1, SVG Export Plug-In . SVG Version: 6.00 Build 0)  -->
<svg version="1.1" id="Capa_1" xmlns="http://www.w3.org/2000/svg" xmlns:xlink="http://www.w3.org/1999/xlink" x="0px" y="0px"
	 viewBox="0 0 55 150" style="enable-background:new 0 0 55 150;" xml:space="preserve">
<path d="M6.1,3.4c0.6,0,1-0.5,1-1s-0.5-1-1-1c-0.6,0-1,0.5-1,1S5.6,3.4,6.1,3.4z"/>
<path d="M11.5,3.4c0.6,0,1-0.5,1-1s-0.5-1-1-1c-0.6,0-1,0.5-1,1S10.9,3.4,11.5,3.4z"/>
<path d="M16.9,3.4c0.6,0,1-0.5,1-1s-0.5-1-1-1c-0.6,0-1,0.5-1,1S16.3,3.4,16.9,3.4z"/>
<path d="M22.2,3.4c0.6,0,1-0.5,1-1s-0.5-1-1-1c-0.6,0-1,0.5-1,1S21.7,3.4,22.2,3.4z"/>
<path d="M27.6,3.4c0.6,0,1-0.5,1-1s-0.5-1-1-1c-0.6,0-1,0.5-1,1S27,3.4,27.6,3.4z"/>
<path d="M33,3.4c0.6,0,1-0.5,1-1s-0.5-1-1-1c-0.6,0-1,0.5-1,1S32.4,3.4,33,3.4z"/>
<path d="M38.3,3.4c0.6,0,1-0.5,1-1s-0.5-1-1-1c-0.6,0-1,0.5-1,1S37.7,3.4,38.3,3.4z"/>
<path d="M43.7,3.4c0.6,0,1-0.5,1-1s-0.5-1-1-1c-0.6,0-1,0.5-1,1S43.1,3.4,43.7,3.4z"/>
<path d="M49,3.4c0.6,0,1-0.5,1-1s-0.5-1-1-1c-0.6,0-1,0.5-1,1S48.5,3.4,49,3.4z"/>
<path d="M3.1,8.4c0.7,0,1.3-0.6,1.3-1.3S3.9,5.8,3.1,5.8c-0.7,0-1.3,0.6-1.3,1.3S2.4,8.4,3.1,8.4z"/>
<path d="M8.5,8.4c0.7,0,1.3-0.6,1.3-1.3S9.2,5.8,8.5,5.8c-0.7,0-1.3,0.6-1.3,1.3S7.8,8.4,8.5,8.4z"/>
<path d="M13.9,8.4c0.7,0,1.3-0.6,1.3-1.3s-0.6-1.3-1.3-1.3c-0.7,0-1.3,0.6-1.3,1.3S13.2,8.4,13.9,8.4z"/>
<path d="M19.2,8.4c0.7,0,1.3-0.6,1.3-1.3s-0.6-1.3-1.3-1.3c-0.7,0-1.3,0.6-1.3,1.3S18.5,8.4,19.2,8.4z"/>
<path d="M24.6,8.4c0.7,0,1.3-0.6,1.3-1.3s-0.6-1.3-1.3-1.3c-0.7,0-1.3,0.6-1.3,1.3S23.9,8.4,24.6,8.4z"/>
<path d="M30,8.4c0.7,0,1.3-0.6,1.3-1.3S30.7,5.8,30,5.8c-0.7,0-1.3,0.6-1.3,1.3S29.2,8.4,30,8.4z"/>
<path d="M35.3,8.4c0.7,0,1.3-0.6,1.3-1.3S36,5.8,35.3,5.8c-0.7,0-1.3,0.6-1.3,1.3S34.6,8.4,35.3,8.4z"/>
<path d="M40.7,8.4c0.7,0,1.3-0.6,1.3-1.3s-0.6-1.3-1.3-1.3c-0.7,0-1.3,0.6-1.3,1.3S40,8.4,40.7,8.4z"/>
<path d="M46,8.4c0.7,0,1.3-0.6,1.3-1.3S46.8,5.8,46,5.8c-0.7,0-1.3,0.6-1.3,1.3S45.3,8.4,46,8.4z"/>
<path d="M51.4,8.4c0.7,0,1.3-0.6,1.3-1.3s-0.6-1.3-1.3-1.3c-0.7,0-1.3,0.6-1.3,1.3S50.7,8.4,51.4,8.4z"/>
<path d="M6.1,13.4c0.9,0,1.6-0.7,1.6-1.6c0-0.9-0.7-1.6-1.6-1.6c-0.9,0-1.6,0.7-1.6,1.6C4.6,12.7,5.3,13.4,6.1,13.4z"/>
<path d="M11.5,13.4c0.9,0,1.6-0.7,1.6-1.6c0-0.9-0.7-1.6-1.6-1.6c-0.9,0-1.6,0.7-1.6,1.6C9.9,12.7,10.6,13.4,11.5,13.4z"/>
<path d="M16.9,13.4c0.9,0,1.6-0.7,1.6-1.6c0-0.9-0.7-1.6-1.6-1.6c-0.9,0-1.6,0.7-1.6,1.6C15.3,12.7,16,13.4,16.9,13.4z"/>
<path d="M22.2,13.4c0.9,0,1.6-0.7,1.6-1.6c0-0.9-0.7-1.6-1.6-1.6c-0.9,0-1.6,0.7-1.6,1.6C20.6,12.7,21.4,13.4,22.2,13.4z"/>
<path d="M27.6,13.4c0.9,0,1.6-0.7,1.6-1.6c0-0.9-0.7-1.6-1.6-1.6c-0.9,0-1.6,0.7-1.6,1.6C26,12.7,26.7,13.4,27.6,13.4z"/>
<path d="M33,13.4c0.9,0,1.6-0.7,1.6-1.6c0-0.9-0.7-1.6-1.6-1.6c-0.9,0-1.6,0.7-1.6,1.6C31.4,12.7,32.1,13.4,33,13.4z"/>
<path d="M38.3,13.4c0.9,0,1.6-0.7,1.6-1.6c0-0.9-0.7-1.6-1.6-1.6c-0.9,0-1.6,0.7-1.6,1.6C36.7,12.7,37.4,13.4,38.3,13.4z"/>
<path d="M43.7,13.4c0.9,0,1.6-0.7,1.6-1.6c0-0.9-0.7-1.6-1.6-1.6c-0.9,0-1.6,0.7-1.6,1.6C42.1,12.7,42.8,13.4,43.7,13.4z"/>
<path d="M49,13.4c0.9,0,1.6-0.7,1.6-1.6c0-0.9-0.7-1.6-1.6-1.6c-0.9,0-1.6,0.7-1.6,1.6C47.5,12.7,48.2,13.4,49,13.4z"/>
<path d="M3.1,18.5c1.1,0,1.9-0.9,1.9-1.9s-0.9-1.9-1.9-1.9c-1.1,0-1.9,0.9-1.9,1.9S2.1,18.5,3.1,18.5z"/>
<path d="M8.5,18.5c1.1,0,1.9-0.9,1.9-1.9s-0.9-1.9-1.9-1.9c-1.1,0-1.9,0.9-1.9,1.9S7.4,18.5,8.5,18.5z"/>
<path d="M13.9,18.5c1.1,0,1.9-0.9,1.9-1.9s-0.9-1.9-1.9-1.9c-1.1,0-1.9,0.9-1.9,1.9S12.8,18.5,13.9,18.5z"/>
<path d="M19.2,18.5c1.1,0,1.9-0.9,1.9-1.9s-0.9-1.9-1.9-1.9c-1.1,0-1.9,0.9-1.9,1.9S18.2,18.5,19.2,18.5z"/>
<path d="M24.6,18.5c1.1,0,1.9-0.9,1.9-1.9s-0.9-1.9-1.9-1.9c-1.1,0-1.9,0.9-1.9,1.9S23.5,18.5,24.6,18.5z"/>
<path d="M30,18.5c1.1,0,1.9-0.9,1.9-1.9S31,14.6,30,14.6c-1.1,0-1.9,0.9-1.9,1.9S28.9,18.5,30,18.5z"/>
<path d="M35.3,18.5c1.1,0,1.9-0.9,1.9-1.9s-0.9-1.9-1.9-1.9c-1.1,0-1.9,0.9-1.9,1.9S34.3,18.5,35.3,18.5z"/>
<path d="M40.7,18.5c1.1,0,1.9-0.9,1.9-1.9s-0.9-1.9-1.9-1.9c-1.1,0-1.9,0.9-1.9,1.9S39.6,18.5,40.7,18.5z"/>
<path d="M46,18.5c1.1,0,1.9-0.9,1.9-1.9s-0.9-1.9-1.9-1.9c-1.1,0-1.9,0.9-1.9,1.9S45,18.5,46,18.5z"/>
<path d="M51.4,18.5c1.1,0,1.9-0.9,1.9-1.9s-0.9-1.9-1.9-1.9c-1.1,0-1.9,0.9-1.9,1.9S50.3,18.5,51.4,18.5z"/>
<path d="M6.1,23.6c1.3,0,2.3-1,2.3-2.3c0-1.3-1-2.3-2.3-2.3c-1.3,0-2.3,1-2.3,2.3C3.8,22.5,4.9,23.6,6.1,23.6z"/>
<path d="M11.5,23.6c1.3,0,2.3-1,2.3-2.3c0-1.3-1-2.3-2.3-2.3c-1.3,0-2.3,1-2.3,2.3C9.2,22.5,10.2,23.6,11.5,23.6z"/>
<path d="M16.9,23.6c1.3,0,2.3-1,2.3-2.3c0-1.3-1-2.3-2.3-2.3c-1.3,0-2.3,1-2.3,2.3C14.6,22.5,15.6,23.6,16.9,23.6z"/>
<path d="M22.2,23.6c1.3,0,2.3-1,2.3-2.3c0-1.3-1-2.3-2.3-2.3c-1.3,0-2.3,1-2.3,2.3C19.9,22.5,21,23.6,22.2,23.6z"/>
<path d="M27.6,23.6c1.3,0,2.3-1,2.3-2.3c0-1.3-1-2.3-2.3-2.3c-1.3,0-2.3,1-2.3,2.3C25.3,22.5,26.3,23.6,27.6,23.6z"/>
<path d="M33,23.6c1.3,0,2.3-1,2.3-2.3c0-1.3-1-2.3-2.3-2.3c-1.3,0-2.3,1-2.3,2.3C30.7,22.5,31.7,23.6,33,23.6z"/>
<path d="M38.3,23.6c1.3,0,2.3-1,2.3-2.3c0-1.3-1-2.3-2.3-2.3C37,19,36,20,36,21.3C36,22.5,37,23.6,38.3,23.6z"/>
<path d="M43.7,23.6c1.3,0,2.3-1,2.3-2.3c0-1.3-1-2.3-2.3-2.3c-1.3,0-2.3,1-2.3,2.3C41.4,22.5,42.4,23.6,43.7,23.6z"/>
<path d="M49,23.6c1.3,0,2.3-1,2.3-2.3c0-1.3-1-2.3-2.3-2.3c-1.3,0-2.3,1-2.3,2.3C46.7,22.5,47.8,23.6,49,23.6z"/>
<path d="M55,1.5c-0.2-0.1-0.4-0.2-0.6-0.2c-0.6,0-1,0.5-1,1c0,0.6,0.5,1,1,1c0.2,0,0.4-0.1,0.6-0.2V1.5z"/>
<path d="M54.1,25.6c-0.2-1.3-1.3-2.3-2.7-2.3s-2.5,1-2.7,2.3c-0.2-1.3-1.3-2.3-2.7-2.3s-2.5,1-2.7,2.3c-0.2-1.3-1.3-2.3-2.7-2.3
	c-1.4,0-2.5,1-2.7,2.3c-0.2-1.3-1.3-2.3-2.7-2.3c-1.4,0-2.5,1-2.7,2.3c-0.2-1.3-1.3-2.3-2.7-2.3s-2.5,1-2.7,2.3
	c-0.2-1.3-1.3-2.3-2.7-2.3s-2.5,1-2.7,2.3c-0.2-1.3-1.3-2.3-2.7-2.3s-2.5,1-2.7,2.3c-0.2-1.3-1.3-2.3-2.7-2.3s-2.5,1-2.7,2.3
	c-0.2-1.3-1.3-2.3-2.7-2.3s-2.5,1-2.7,2.3c-0.2-1.3-1.3-2.3-2.7-2.3s-2.5,1-2.7,2.3c-0.1-0.4-0.2-0.8-0.5-1.1v3.1
	c0.2-0.3,0.4-0.7,0.5-1.1c0.1,0.4,0.2,0.8,0.5,1.2c-0.1,0-0.1,0-0.2,0c-0.3,0-0.5,0.1-0.8,0.1v11.6V150h55V39.6V23.9
	C54.5,24.3,54.2,24.9,54.1,25.6z M3.5,29.1c-0.1-0.1-0.2-0.3-0.3-0.4c0.2,0,0.4,0,0.6-0.1C3.7,28.8,3.6,28.9,3.5,29.1z M6.1,27.6
	c-0.3,0-0.6,0.1-0.9,0.1c0.3-0.4,0.5-0.8,0.6-1.3c0.1,0.4,0.2,0.8,0.5,1.2C6.3,27.6,6.2,27.6,6.1,27.6z M8.8,29.1
	c-0.1-0.1-0.2-0.3-0.3-0.4c0.2,0,0.4,0,0.6-0.1C9,28.8,8.9,28.9,8.8,29.1z M11.5,27.6c-0.3,0-0.6,0.1-0.9,0.1
	c0.3-0.4,0.5-0.8,0.6-1.3c0.1,0.4,0.2,0.8,0.5,1.2C11.6,27.6,11.6,27.6,11.5,27.6z M14.2,29.1c-0.1-0.1-0.2-0.3-0.3-0.4
	c0.2,0,0.4,0,0.6-0.1C14.4,28.8,14.3,28.9,14.2,29.1z M16.9,27.6c-0.3,0-0.6,0.1-0.9,0.1c0.3-0.4,0.5-0.8,0.6-1.3
	c0.1,0.4,0.2,0.8,0.5,1.2C17,27.6,16.9,27.6,16.9,27.6z M19.6,29.1c-0.1-0.1-0.2-0.3-0.3-0.4c0.2,0,0.4,0,0.6-0.1
	C19.8,28.8,19.6,28.9,19.6,29.1z M22.2,27.6c-0.3,0-0.6,0.1-0.9,0.1c0.3-0.4,0.5-0.8,0.6-1.3c0.1,0.4,0.2,0.8,0.5,1.2
	C22.3,27.6,22.3,27.6,22.2,27.6z M24.9,29.1c-0.1-0.1-0.2-0.3-0.3-0.4c0.2,0,0.4,0,0.6-0.1C25.1,28.8,25,28.9,24.9,29.1z M27.6,27.6
	c-0.3,0-0.6,0.1-0.9,0.1c0.3-0.4,0.5-0.8,0.6-1.3c0.1,0.4,0.2,0.8,0.5,1.2C27.7,27.6,27.6,27.6,27.6,27.6z M30.3,29.1
	c-0.1-0.1-0.2-0.3-0.3-0.4c0.2,0,0.4,0,0.6-0.1C30.5,28.8,30.4,28.9,30.3,29.1z M33,27.6c-0.3,0-0.6,0.1-0.9,0.1
	c0.3-0.4,0.5-0.8,0.6-1.3c0.1,0.4,0.2,0.8,0.5,1.2C33.1,27.6,33,27.6,33,27.6z M35.6,29.1c-0.1-0.1-0.2-0.3-0.3-0.4
	c0.2,0,0.4,0,0.6-0.1C35.9,28.8,35.7,28.9,35.6,29.1z M38.3,27.6c-0.3,0-0.6,0.1-0.9,0.1c0.3-0.4,0.5-0.8,0.6-1.3
	c0.1,0.4,0.2,0.8,0.5,1.2C38.4,27.6,38.4,27.6,38.3,27.6z M41,29.1c-0.1-0.1-0.2-0.3-0.3-0.4c0.2,0,0.4,0,0.6-0.1
	C41.2,28.8,41.1,28.9,41,29.1z M43.7,27.6c-0.3,0-0.6,0.1-0.9,0.1c0.3-0.4,0.5-0.8,0.6-1.3c0.1,0.4,0.2,0.8,0.5,1.2
	C43.8,27.6,43.7,27.6,43.7,27.6z M46.4,29.1c-0.1-0.1-0.2-0.3-0.3-0.4c0.2,0,0.4,0,0.6-0.1C46.6,28.8,46.5,28.9,46.4,29.1z M49,27.6
	c-0.3,0-0.6,0.1-0.9,0.1c0.3-0.4,0.5-0.8,0.6-1.3c0.1,0.4,0.2,0.8,0.5,1.2C49.2,27.6,49.1,27.6,49,27.6z M51.7,29.1
	c-0.1-0.1-0.2-0.3-0.3-0.4c0.2,0,0.4,0,0.6-0.1C51.9,28.8,51.8,28.9,51.7,29.1z M54.4,27.6c-0.3,0-0.6,0.1-0.9,0.1
	c0.3-0.4,0.5-0.8,0.6-1.3c0.1,0.4,0.2,0.8,0.5,1.2C54.5,27.6,54.5,27.6,54.4,27.6z"/>
<path d="M55,15.8c-0.1,0.2-0.1,0.5-0.1,0.7s0.1,0.5,0.1,0.7V15.8z"/>
<path d="M55,19C54.8,19,54.6,19,54.4,19c-1.3,0-2.3,1-2.3,2.3c0,1.3,1,2.3,2.3,2.3c0.2,0,0.4,0,0.6-0.1V19z"/>
<path d="M0.8,19C0.5,19,0.2,19,0,19.1v4.3c0.2,0.1,0.5,0.1,0.8,0.1c1.3,0,2.3-1,2.3-2.3C3.1,20,2.1,19,0.8,19z"/>
<path d="M0.8,10.2c-0.3,0-0.5,0.1-0.8,0.2v2.8c0.2,0.1,0.5,0.2,0.8,0.2c0.9,0,1.6-0.7,1.6-1.6C2.4,10.9,1.7,10.2,0.8,10.2z"/>
<path d="M55,10.3c-0.2-0.1-0.4-0.1-0.6-0.1c-0.9,0-1.6,0.7-1.6,1.6c0,0.9,0.7,1.6,1.6,1.6c0.2,0,0.4,0,0.6-0.1V10.3z"/>
<path d="M0.8,1.3C0.5,1.3,0.2,1.5,0,1.7V3c0.2,0.2,0.5,0.4,0.8,0.4c0.6,0,1-0.5,1-1C1.8,1.8,1.4,1.3,0.8,1.3z"/>
</svg>
